<svg xmlns="http://www.w3.org/2000/svg" xmlns:svg="http://www.w3.org/2000/svg" id="svg2909" width="230" height="230" version="1.1" viewBox="0 0 60.854 60.854"><defs id="defs2903"><rect id="rect1567" width="11.515" height="30.142" x="35.656" y="30.139"/><rect id="rect1170" width="26.851" height="20.613" x="31.089" y="30.428"/><marker style="overflow:visible" id="Arrow1Mend" orient="auto" refX="0" refY="0"><path style="fill-rule:evenodd;stroke:#000;stroke-width:1pt" id="path4530" d="M 0,0 5,-5 -12.5,0 5,5 Z" transform="matrix(-0.4,0,0,-0.4,-4,0)"/></marker><marker style="overflow:visible" id="marker4793" orient="auto" refX="0" refY="0"><path style="fill-rule:evenodd;stroke:#000;stroke-width:1pt" id="path4791" d="M 0,0 5,-5 -12.5,0 5,5 Z" transform="matrix(0.8,0,0,0.8,10,0)"/></marker><marker style="overflow:visible" id="Arrow1Lstart" orient="auto" refX="0" refY="0"><path style="fill-rule:evenodd;stroke:#000;stroke-width:1pt" id="path4521" d="M 0,0 5,-5 -12.5,0 5,5 Z" transform="matrix(0.8,0,0,0.8,10,0)"/></marker></defs><metadata id="metadata2906"/><g id="layer1"><g style="fill:none;fill-opacity:.960784;stroke:#000;stroke-width:1.00002;stroke-linecap:square;stroke-linejoin:bevel;stroke-miterlimit:4;stroke-dasharray:none;stroke-opacity:1;paint-order:markers fill stroke" id="g965" transform="matrix(1.7819652,0,0,1.7819652,-130.0962,-95.022904)"><path style="fill:none;fill-opacity:.960784;stroke:#000;stroke-width:1.00002;stroke-linecap:square;stroke-linejoin:bevel;stroke-miterlimit:4;stroke-dasharray:none;stroke-opacity:1;paint-order:markers fill stroke" id="path948" d="M 104.40467,78.485375 90.388397,86.577677 76.37212,78.485375 V 62.300773 l 14.016277,-8.092302 14.016273,8.092302 z"/><g style="fill:none;fill-opacity:.960784;stroke:#000;stroke-width:1.00002;stroke-linecap:square;stroke-linejoin:bevel;stroke-miterlimit:4;stroke-dasharray:none;stroke-opacity:1;paint-order:markers fill stroke" id="g970"><path style="fill:none;fill-opacity:.960784;stroke:#000;stroke-width:1.00002;stroke-linecap:square;stroke-linejoin:bevel;stroke-miterlimit:4;stroke-dasharray:none;stroke-opacity:1;paint-order:markers fill stroke" id="path958" d="M 76.372123,62.300774 90.453689,70.40058 104.40468,62.300774 90.446371,70.438187 Z"/><path style="fill:none;fill-opacity:.960784;stroke:#000;stroke-width:1.00002;stroke-linecap:square;stroke-linejoin:bevel;stroke-miterlimit:4;stroke-dasharray:none;stroke-opacity:1;paint-order:markers fill stroke" id="path960" d="m 90.453689,70.40058 c -0.06529,16.177098 -0.06529,16.177098 -0.06529,16.177098 z"/></g></g><g id="g1360" transform="matrix(0.64178267,0.27124927,-0.64178267,1.0123161,40.873439,-12.541285)"><path style="fill:none;stroke:#000;stroke-width:2.265;stroke-linecap:round;stroke-linejoin:round;stroke-miterlimit:4;stroke-dasharray:none;stroke-opacity:1" id="path1196" d="M 35.420241,38.127392 H 51.086932"/><path id="path1196-3" d="M 43.253587,30.294046 V 45.960737" style="fill:none;stroke:#000;stroke-width:2.265;stroke-linecap:round;stroke-linejoin:round;stroke-miterlimit:4;stroke-dasharray:none;stroke-opacity:1"/></g></g></svg>