<svg xmlns="http://www.w3.org/2000/svg" xmlns:svg="http://www.w3.org/2000/svg" id="svg1946" width="230" height="230" version="1.1" viewBox="0 0 60.854 60.854"><defs id="defs1950"><rect id="rect2644-6" width="7.045" height="6.123" x="71.197" y="79.058"/><rect id="rect2698" width="7.045" height="6.123" x="71.197" y="79.058"/><rect id="rect34283-2" width="13.904" height="20.094" x="139.022" y="26.195"/><rect id="rect1016" width="13.904" height="20.094" x="139.022" y="26.195"/><rect id="rect34283" width="52.577" height="26.034" x="139.022" y="26.195"/><rect id="rect1019" width="52.577" height="26.034" x="139.022" y="26.195"/></defs><metadata id="metadata1934"/><g style="paint-order:markers fill stroke" id="g1944" fill="none" stroke="#000" stroke-linecap="square" stroke-linejoin="bevel" transform="matrix(1.782 0 0 1.782 -130.1 -95.023)"><path style="paint-order:markers fill stroke" id="path1936" d="m104.4 78.485-14.016 8.0923-14.016-8.0923v-16.185l14.016-8.0923 14.016 8.0923z"/><g style="paint-order:markers fill stroke" id="g1942"><path style="paint-order:markers fill stroke" id="path1938" d="m76.372 62.301 14.082 8.0998 13.951-8.0998-13.958 8.1374z"/><path style="paint-order:markers fill stroke" id="path1940" d="m90.454 70.401-0.06529 16.177z"/></g></g><text style="font-size:14.1111px;line-height:1.25;font-family:sans-serif;white-space:pre;shape-inside:url(#rect34283)" id="text34281" transform="matrix(1.1942834,-0.68951985,0,1.1942834,-124.84869,93.3728)" xml:space="preserve"><tspan x="139.021" y="41.012"><tspan style="font-style:normal;font-variant:normal;font-weight:900;font-stretch:normal;font-size:16.9333px;font-family:Roboto;-inkscape-font-specification:'Roboto Heavy'">!</tspan></tspan></text><text id="text34281-1" transform="matrix(1.1942834,0.68951985,0,1.1942834,-152.27852,-103.09942)" xml:space="preserve" style="font-size:14.1111px;line-height:1.25;font-family:sans-serif;white-space:pre;shape-inside:url(#rect34283-2)"><tspan x="139.021" y="41.012"><tspan style="font-style:normal;font-variant:normal;font-weight:900;font-stretch:normal;font-size:16.9333px;font-family:Roboto;-inkscape-font-specification:'Roboto Heavy'">?</tspan></tspan></text></svg>