<svg xmlns="http://www.w3.org/2000/svg" xmlns:xlink="http://www.w3.org/1999/xlink" width="800" height="418" version="1.1" viewBox="0 0 211.67 110.6"><defs><linearGradient id="a" x1="361.15" x2="-73.593" y1="-171.88" y2="-6.532" gradientTransform="translate(3.7579e-7 -.0031725)" gradientUnits="userSpaceOnUse"><stop offset="0" stop-color="#fa0"/><stop offset="1" stop-color="#ff4949"/></linearGradient></defs><metadata/><text style="line-height:1.25;shape-inside:url(#rect9649);white-space:pre" fill="#fff" fill-opacity=".103" font-family="sans-serif" font-size="2.822" transform="matrix(1.2345 0 0 1.2345 37.637 21.064)" xml:space="preserve"><tspan x="105.219" y="71.083"><tspan fill="#fff" fill-opacity=".103">{{ now(utc=true) | date(format=&quot;%Y-%m-%d %H:%M:%S UTC&quot;) }}</tspan></tspan></text><rect style="paint-order:stroke markers fill" width="211.67" height="110.6" fill="#fefefe" fill-rule="evenodd"/><rect style="paint-order:markers fill stroke" width="211.67" height="16" x="0" y="-110.6" fill="url(#a)" fill-rule="evenodd" transform="scale(1,-1)"/><g><g stroke="#fff" stroke-linecap="round"><g style="paint-order:stroke fill markers" stroke-width="2.3"><g style="paint-order:stroke fill markers" stroke="#fff" stroke-linecap="round" stroke-width="2.3"><g style="paint-order:stroke fill markers" fill="#f04b4b" stroke="#fff" stroke-linecap="round" stroke-width="2.3"><g style="paint-order:stroke fill markers" stroke="#fff" stroke-linecap="round" stroke-width="2.3"><path style="paint-order:stroke fill markers" fill="none" d="m123.68 48.356 7.961 4.5963v27.444l-23.767 13.722-15.857-9.1551" transform="matrix(.61725 0 0 .61725 .19417 -1.6619) matrix(.56497 0 0 .56497 5.1975 157.51) matrix(.4614 0 0 .4614 -18.074 -13.326) translate(-4.7302 9.9297) translate(-21.682 -4.325)"/><path style="paint-order:stroke fill markers" fill="#f04b4b" d="m107.87 94.119 0.0165-27.443" transform="matrix(.61725 0 0 .61725 .19417 -1.6619) matrix(.56497 0 0 .56497 5.1975 157.51) matrix(.4614 0 0 .4614 -18.074 -13.326) translate(-4.7302 9.9297) translate(-21.682 -4.325)"/><path style="paint-order:stroke fill markers" fill="#f04b4b" d="m107.89 66.676 23.751-13.724" transform="matrix(.61725 0 0 .61725 .19417 -1.6619) matrix(.56497 0 0 .56497 5.1975 157.51) matrix(.4614 0 0 .4614 -18.074 -13.326) translate(-4.7302 9.9297) translate(-21.682 -4.325)"/></g></g></g></g><g style="paint-order:markers fill stroke" fill="none" stroke-dasharray="4.836 4.836" stroke-dashoffset="13.299" stroke-linejoin="round" stroke-miterlimit="0" stroke-width="2.418"><g style="paint-order:markers fill stroke" fill="none" stroke="#fff" stroke-dasharray="4.836 4.836" stroke-dashoffset="13.299" stroke-linecap="round" stroke-linejoin="round" stroke-miterlimit="0" stroke-width="2.418"><g style="paint-order:markers fill stroke" fill="none" stroke="#fff" stroke-dasharray="4.836 4.836" stroke-dashoffset="13.299" stroke-linecap="round" stroke-linejoin="round" stroke-miterlimit="0" stroke-width="2.418"><g style="paint-order:markers fill stroke" fill="none" stroke="#fff" stroke-dasharray="4.836 4.836" stroke-dashoffset="13.299" stroke-linecap="round" stroke-linejoin="round" stroke-miterlimit="0" stroke-width="2.418"><g style="paint-order:markers fill stroke" fill="none" stroke="#fff" stroke-dasharray="4.836 4.836" stroke-dashoffset="13.299" stroke-linecap="round" stroke-linejoin="round" stroke-miterlimit="0" stroke-width="2.418"><path fill="none" stroke="#fff" stroke-dasharray="4.836 4.836" stroke-dashoffset="13.299" stroke-linecap="round" stroke-linejoin="round" stroke-miterlimit="0" stroke-width="2.418" d="m134.91 86.923-23.784-13.724m7.9159 32.014-7.9159-4.5703v-27.444l23.767-13.722 15.804 9.1243" transform="matrix(.61725 0 0 .61725 .19417 -1.6619) matrix(.56497 0 0 .56497 5.1975 157.51) matrix(.4614 0 0 .4614 -30.044 -19.974) translate(-11.036 6.2362) translate(2.3231 .20229) translate(-18.774 -6.6742)" style="paint-order:markers fill stroke"/></g></g></g></g></g></g><text style="line-height:1.25;shape-inside:url(#rect1675-6-3);white-space:pre" fill="#fff" font-family="sans-serif" font-size="10.583" transform="matrix(.61725 0 0 .61725 .19417 -1.6619) translate(-6.6414 158.14)" xml:space="preserve"><tspan x="33.344" y="14.081"><tspan>{{ config.title }}</tspan></tspan></text></g><g aria-label="Template &amp; Block" transform="translate(-3.2993 73.364)" style="shape-inside:url(#rect15860);white-space:pre"><g aria-label="Sanctioned Transactions in Template &amp; Block" transform="translate(.029187 -2.6568)" style="shape-inside:url(#rect20776);white-space:pre"><g><path d="m43.219-0.49868q0-0.58567-0.41341-0.89572-0.41341-0.31695-1.4883-0.66146-1.0749-0.3514-1.7019-0.68902-1.7088-0.92328-1.7088-2.4874 0-0.81304 0.45475-1.4469 0.46164-0.64079 1.316-0.99908 0.86127-0.35829 1.9293-0.35829 1.0749 0 1.9155 0.39274 0.8406 0.38585 1.3022 1.0955 0.46853 0.70969 0.46853 1.6123h-2.0671q0-0.68902-0.43408-1.068-0.43408-0.38585-1.2196-0.38585-0.75792 0-1.1782 0.32384-0.4203 0.31695-0.4203 0.8406 0 0.4892 0.4892 0.81993 0.49609 0.33073 1.4538 0.62012 1.7639 0.53054 2.57 1.316 0.80615 0.78548 0.80615 1.9568 0 1.3022-0.9853 2.0464-0.9853 0.73725-2.6527 0.73725-1.1576 0-2.1084-0.4203-0.95085-0.42719-1.4538-1.1644-0.49609-0.73725-0.49609-1.7088h2.0739q0 1.6605 1.9844 1.6605 0.73725 0 1.1507-0.29628 0.41341-0.30317 0.41341-0.8406z" transform="translate(-6.5417 7.9375)"/><path d="m50.881 2.1334q-0.1378-0.26872-0.19982-0.66835-0.72347 0.80615-1.881 0.80615-1.0955 0-1.819-0.6339-0.71658-0.6339-0.71658-1.5985 0-1.1851 0.87505-1.819 0.88194-0.6339 2.5425-0.64079h0.9164v-0.42719q0-0.51676-0.26872-0.82682-0.26183-0.31006-0.83371-0.31006-0.50298 0-0.79237 0.24116-0.2825 0.24116-0.2825 0.66146h-1.9913q0-0.64768 0.39963-1.1989 0.39963-0.55121 1.13-0.86127 0.73036-0.31695 1.6399-0.31695 1.378 0 2.1842 0.69591 0.81304 0.68902 0.81304 1.943v3.2315q0.0069 1.0611 0.29628 1.6054v0.11713zm-1.6468-1.3849q0.44097 0 0.81304-0.19293 0.37207-0.19982 0.55122-0.53054v-1.2816h-0.74414q-1.4952 0-1.5916 1.0335l-0.0069 0.11713q0 0.37207 0.26183 0.61323t0.71658 0.24116z" transform="translate(-6.5417 7.9375)"/><path d="m55.959-5.3218 0.06201 0.86127q0.79926-0.99908 2.1428-0.99908 1.1851 0 1.7639 0.69591 0.57878 0.69591 0.59256 2.0808v4.8162h-1.9913v-4.768q0-0.6339-0.27561-0.91639-0.27561-0.28939-0.9164-0.28939-0.8406 0-1.2609 0.71658v5.2572h-1.9913v-7.4552z" transform="translate(-6.5417 7.9375)"/><path d="m65.13 0.66576q0.55122 0 0.89572-0.30317 0.34451-0.30317 0.35829-0.80615h1.8672q-0.0069 0.75792-0.41341 1.3918-0.40652 0.62701-1.1162 0.97841-0.7028 0.34451-1.5572 0.34451-1.5985 0-2.5218-1.0129-0.92328-1.0197-0.92328-2.8112v-0.13091q0-1.7225 0.9164-2.7492 0.9164-1.0266 2.5149-1.0266 1.3987 0 2.2393 0.79926 0.84749 0.79237 0.86127 2.1153h-1.8672q-0.01378-0.57878-0.35829-0.93707-0.34451-0.36518-0.9095-0.36518-0.69591 0-1.0542 0.50987-0.3514 0.50298-0.3514 1.6399v0.20671q0 1.1507 0.3514 1.6536 0.3514 0.50298 1.068 0.50298z" transform="translate(-6.5417 7.9375)"/><path d="m71.772-7.1546v1.8328h1.2747v1.4607h-1.2747v3.7207q0 0.41341 0.15847 0.59256 0.15847 0.17914 0.60634 0.17914 0.33073 0 0.58566-0.048231v1.509q-0.58566 0.17914-1.2058 0.17914-2.0946 0-2.136-2.1153v-4.017h-1.0886v-1.4607h1.0886v-1.8328z" transform="translate(-6.5417 7.9375)"/><path d="m76.257 2.1334h-1.9982v-7.4552h1.9982zm-2.1153-9.3844q0-0.44786 0.29628-0.73725 0.30317-0.28939 0.81993-0.28939 0.50987 0 0.81304 0.28939 0.30317 0.28939 0.30317 0.73725 0 0.45475-0.31006 0.74414-0.30317 0.28939-0.80615 0.28939-0.50298 0-0.81304-0.28939-0.30317-0.28939-0.30317-0.74414z" transform="translate(-6.5417 7.9375)"/><path d="m77.587-1.6631q0-1.1093 0.42719-1.9775 0.42719-0.86816 1.2265-1.3436 0.80615-0.47542 1.8672-0.47542 1.509 0 2.4598 0.92328 0.95774 0.92328 1.068 2.508l0.01378 0.50987q0 1.7157-0.95774 2.7561-0.95774 1.0335-2.57 1.0335t-2.5769-1.0335q-0.95774-1.0335-0.95774-2.8112zm1.9913 0.14469q0 1.0611 0.39963 1.6261 0.39963 0.55811 1.1438 0.55811 0.72347 0 1.13-0.55121 0.40652-0.55811 0.40652-1.7777 0-1.0404-0.40652-1.6123t-1.1438-0.57189q-0.73036 0-1.13 0.57189-0.39963 0.565-0.39963 1.757z" transform="translate(-6.5417 7.9375)"/><path d="m87.709-5.3218 0.06201 0.86127q0.79926-0.99908 2.1428-0.99908 1.1851 0 1.7639 0.69591 0.57878 0.69591 0.59256 2.0808v4.8162h-1.9913v-4.768q0-0.6339-0.27561-0.91639-0.27561-0.28939-0.91639-0.28939-0.8406 0-1.2609 0.71658v5.2572h-1.9913v-7.4552z" transform="translate(-6.5417 7.9375)"/><path d="m97.21 2.2712q-1.6399 0-2.6734-1.006-1.0266-1.006-1.0266-2.6803v-0.19293q0-1.1231 0.43408-2.005 0.43408-0.88883 1.2265-1.3643 0.79926-0.48231 1.819-0.48231 1.5296 0 2.4047 0.96463 0.88194 0.96463 0.88194 2.7354v0.81304h-4.7473q0.09646 0.73036 0.57878 1.1713 0.4892 0.44097 1.2333 0.44097 1.1507 0 1.7983-0.83371l0.97841 1.0955q-0.44786 0.6339-1.2127 0.99219-0.76481 0.3514-1.695 0.3514zm-0.22738-6.1185q-0.59256 0-0.96463 0.39963-0.36518 0.39963-0.46853 1.1438h2.7699v-0.15847q-0.01378-0.66146-0.35829-1.0197-0.34451-0.36518-0.97841-0.36518z" transform="translate(-6.5417 7.9375)"/><path d="m101.1-1.6493q0-1.7432 0.77859-2.7767 0.78548-1.0335 2.1428-1.0335 1.0886 0 1.7983 0.81304v-3.8034h1.9982v10.583h-1.7983l-0.0965-0.79237q-0.74414 0.93018-1.9155 0.93018-1.316 0-2.1153-1.0335-0.79237-1.0404-0.79237-2.887zm1.9913 0.14469q0 1.0473 0.36518 1.6054 0.36518 0.55811 1.0611 0.55811 0.92329 0 1.3022-0.77859v-2.9421q-0.37207-0.77859-1.2885-0.77859-1.44 0-1.44 2.3358z" transform="translate(-6.5417 7.9375)"/><path d="m120.14-6.2244h-3.073v8.3578h-2.0671v-8.3578h-3.0317v-1.6743h8.1718z" transform="translate(-6.5417 7.9375)"/><path d="m124.93-3.4546q-0.40652-0.055121-0.71658-0.055121-1.13 0-1.4814 0.76481v4.8783h-1.9913v-7.4552h1.881l0.0551 0.88883q0.59945-1.0266 1.6605-1.0266 0.33072 0 0.62011 0.089572z" transform="translate(-6.5417 7.9375)"/><path d="m130 2.1334q-0.13781-0.26872-0.19982-0.66835-0.72347 0.80615-1.881 0.80615-1.0955 0-1.819-0.6339-0.71658-0.6339-0.71658-1.5985 0-1.1851 0.87506-1.819 0.88194-0.6339 2.5425-0.64079h0.9164v-0.42719q0-0.51676-0.26872-0.82682-0.26182-0.31006-0.83371-0.31006-0.50298 0-0.79237 0.24116-0.2825 0.24116-0.2825 0.66146h-1.9913q0-0.64768 0.39963-1.1989 0.39963-0.55121 1.13-0.86127 0.73036-0.31695 1.6399-0.31695 1.378 0 2.1842 0.69591 0.81304 0.68902 0.81304 1.943v3.2315q7e-3 1.0611 0.29628 1.6054v0.11713zm-1.6468-1.3849q0.44097 0 0.81304-0.19293 0.37207-0.19982 0.55122-0.53054v-1.2816h-0.74414q-1.4952 0-1.5916 1.0335l-7e-3 0.11713q0 0.37207 0.26182 0.61323 0.26183 0.24116 0.71658 0.24116z" transform="translate(-6.5417 7.9375)"/><path d="m135.08-5.3218 0.062 0.86127q0.79927-0.99908 2.1428-0.99908 1.1851 0 1.7639 0.69591 0.57877 0.69591 0.59256 2.0808v4.8162h-1.9913v-4.768q0-0.6339-0.27561-0.91639-0.2756-0.28939-0.91639-0.28939-0.8406 0-1.2609 0.71658v5.2572h-1.9913v-7.4552z" transform="translate(-6.5417 7.9375)"/><path d="m145.19 0.073202q0-0.36518-0.36518-0.57189-0.35829-0.2136-1.1576-0.37896-2.6596-0.55811-2.6596-2.26 0-0.99219 0.81994-1.6536 0.82682-0.66835 2.1566-0.66835 1.4194 0 2.2669 0.66835 0.85438 0.66835 0.85438 1.7363h-1.9913q0-0.42719-0.27561-0.7028-0.27561-0.2825-0.86128-0.2825-0.50298 0-0.77859 0.22738-0.2756 0.22738-0.2756 0.57878 0 0.33073 0.31005 0.53743 0.31695 0.19982 1.0611 0.3514 0.74414 0.14469 1.254 0.33073 1.5778 0.57878 1.5778 2.005 0 1.0197-0.87505 1.6536-0.87506 0.62701-2.26 0.62701-0.93706 0-1.6674-0.33073-0.72347-0.33762-1.1369-0.91639-0.41341-0.58567-0.41341-1.2609h1.8879q0.0276 0.53054 0.39274 0.81304 0.36518 0.2825 0.97841 0.2825 0.57188 0 0.86127-0.2136 0.29628-0.22049 0.29628-0.57189z" transform="translate(-6.5417 7.9375)"/><path d="m152.72 2.1334q-0.13781-0.26872-0.19982-0.66835-0.72347 0.80615-1.881 0.80615-1.0955 0-1.819-0.6339-0.71658-0.6339-0.71658-1.5985 0-1.1851 0.87506-1.819 0.88194-0.6339 2.5425-0.64079h0.91639v-0.42719q0-0.51676-0.26872-0.82682-0.26182-0.31006-0.83371-0.31006-0.50298 0-0.79237 0.24116-0.2825 0.24116-0.2825 0.66146h-1.9913q0-0.64768 0.39963-1.1989 0.39963-0.55121 1.13-0.86127 0.73036-0.31695 1.6399-0.31695 1.378 0 2.1842 0.69591 0.81304 0.68902 0.81304 1.943v3.2315q7e-3 1.0611 0.29628 1.6054v0.11713zm-1.6468-1.3849q0.44098 0 0.81305-0.19293 0.37207-0.19982 0.55121-0.53054v-1.2816h-0.74414q-1.4952 0-1.5916 1.0335l-7e-3 0.11713q0 0.37207 0.26182 0.61323 0.26183 0.24116 0.71658 0.24116z" transform="translate(-6.5417 7.9375)"/><path d="m159.07 0.66576q0.55121 0 0.89572-0.30317t0.35829-0.80615h1.8672q-7e-3 0.75792-0.41341 1.3918-0.40652 0.62701-1.1162 0.97841-0.7028 0.34451-1.5572 0.34451-1.5985 0-2.5218-1.0129-0.92328-1.0197-0.92328-2.8112v-0.13091q0-1.7225 0.91639-2.7492 0.9164-1.0266 2.5149-1.0266 1.3987 0 2.2393 0.79926 0.84749 0.79237 0.86127 2.1153h-1.8672q-0.0138-0.57878-0.35829-0.93707-0.34451-0.36518-0.9095-0.36518-0.69591 0-1.0542 0.50987-0.3514 0.50298-0.3514 1.6399v0.20671q0 1.1507 0.3514 1.6536t1.068 0.50298z" transform="translate(-6.5417 7.9375)"/><path d="m165.71-7.1546v1.8328h1.2747v1.4607h-1.2747v3.7207q0 0.41341 0.15847 0.59256 0.15848 0.17914 0.60634 0.17914 0.33073 0 0.58566-0.048231v1.509q-0.58566 0.17914-1.2058 0.17914-2.0946 0-2.136-2.1153v-4.017h-1.0886v-1.4607h1.0886v-1.8328z" transform="translate(-6.5417 7.9375)"/><path d="m170.2 2.1334h-1.9982v-7.4552h1.9982zm-2.1153-9.3844q0-0.44786 0.29628-0.73725 0.30316-0.28939 0.81993-0.28939 0.50987 0 0.81304 0.28939t0.30317 0.73725q0 0.45475-0.31006 0.74414-0.30317 0.28939-0.80615 0.28939-0.50299 0-0.81304-0.28939-0.30317-0.28939-0.30317-0.74414z" transform="translate(-6.5417 7.9375)"/><path d="m171.53-1.6631q0-1.1093 0.42719-1.9775t1.2264-1.3436q0.80615-0.47542 1.8672-0.47542 1.509 0 2.4598 0.92328 0.95774 0.92328 1.068 2.508l0.0138 0.50987q0 1.7157-0.95774 2.7561-0.95773 1.0335-2.57 1.0335-1.6123 0-2.5769-1.0335-0.95773-1.0335-0.95773-2.8112zm1.9913 0.14469q0 1.0611 0.39963 1.6261 0.39963 0.55811 1.1438 0.55811 0.72347 0 1.13-0.55121 0.40653-0.55811 0.40653-1.7777 0-1.0404-0.40653-1.6123-0.40652-0.57189-1.1438-0.57189-0.73036 0-1.13 0.57189-0.39963 0.565-0.39963 1.757z" transform="translate(-6.5417 7.9375)"/><path d="m181.65-5.3218 0.062 0.86127q0.79927-0.99908 2.1428-0.99908 1.1851 0 1.7639 0.69591 0.57877 0.69591 0.59256 2.0808v4.8162h-1.9913v-4.768q0-0.6339-0.27561-0.91639-0.2756-0.28939-0.91639-0.28939-0.8406 0-1.2609 0.71658v5.2572h-1.9913v-7.4552z" transform="translate(-6.5417 7.9375)"/><path d="m191.76 0.073202q0-0.36518-0.36518-0.57189-0.35829-0.2136-1.1576-0.37896-2.6596-0.55811-2.6596-2.26 0-0.99219 0.81994-1.6536 0.82682-0.66835 2.1566-0.66835 1.4194 0 2.2669 0.66835 0.85438 0.66835 0.85438 1.7363h-1.9913q0-0.42719-0.27561-0.7028-0.27561-0.2825-0.86128-0.2825-0.50298 0-0.77859 0.22738-0.2756 0.22738-0.2756 0.57878 0 0.33073 0.31005 0.53743 0.31695 0.19982 1.0611 0.3514 0.74414 0.14469 1.254 0.33073 1.5778 0.57878 1.5778 2.005 0 1.0197-0.87505 1.6536-0.87506 0.62701-2.26 0.62701-0.93707 0-1.6674-0.33073-0.72347-0.33762-1.1369-0.91639-0.41341-0.58567-0.41341-1.2609h1.8879q0.0276 0.53054 0.39274 0.81304 0.36518 0.2825 0.97841 0.2825 0.57188 0 0.86127-0.2136 0.29628-0.22049 0.29628-0.57189z" transform="translate(-6.5417 7.9375)"/></g></g></g><g><g style="paint-order:markers fill stroke" fill="none" stroke="#000" stroke-linecap="square" stroke-linejoin="bevel"><path style="paint-order:markers fill stroke" d="m104.4 78.485-14.016 8.0923-14.016-8.0923v-16.185l14.016-8.0923 14.016 8.0923z" transform="matrix(2.0315 0 0 2.0315 71.129 2.3736) matrix(.73793 0 0 .73793 -49.617 -35.08)"/><g style="paint-order:markers fill stroke"><path style="paint-order:markers fill stroke" d="m76.372 62.301 14.082 8.0998 13.951-8.0998-13.958 8.1374z" transform="matrix(2.0315 0 0 2.0315 71.129 2.3736) matrix(.73793 0 0 .73793 -49.617 -35.08)"/><path style="paint-order:markers fill stroke" d="m90.454 70.401-0.06529 16.177z" transform="matrix(2.0315 0 0 2.0315 71.129 2.3736) matrix(.73793 0 0 .73793 -49.617 -35.08)"/></g></g><g transform="matrix(2.0315 0 0 2.0315 71.129 2.3736) matrix(.24009 .10147 -.24009 .37871 20.79 1.474)"><circle style="paint-order:stroke markers fill" cx="44.037" cy="37.402" r="8.599" fill="none" stroke="#190200" stroke-linecap="round" stroke-linejoin="round" stroke-width="3.176"/><rect style="paint-order:stroke markers fill" width="3.274" height="18.131" x="42.401" y="28.336" fill="#0b0100" fill-rule="evenodd"/></g></g></svg>