<svg xmlns="http://www.w3.org/2000/svg" xmlns:xlink="http://www.w3.org/1999/xlink" width="800" height="418" version="1.1" viewBox="0 0 211.67 110.6"><defs><linearGradient id="a" x1="361.15" x2="-73.593" y1="-171.88" y2="-6.532" gradientTransform="translate(3.7579e-7 -.0031725)" gradientUnits="userSpaceOnUse"><stop offset="0" stop-color="#ff0ece"/><stop offset="1" stop-color="#ff4f4f"/></linearGradient></defs><metadata/><text style="line-height:1.25;shape-inside:url(#rect9649);white-space:pre" fill="#fff" fill-opacity=".103" font-family="sans-serif" font-size="2.822" transform="matrix(1.2345 0 0 1.2345 11.708 22.651)" xml:space="preserve"><tspan x="105.219" y="71.083"><tspan fill="#fff" fill-opacity=".103">{{ now(utc=true) | date(format=&quot;%Y-%m-%d %H:%M:%S UTC&quot;) }}</tspan></tspan></text><rect style="paint-order:stroke markers fill" width="211.67" height="110.6" fill="#fefefe" fill-rule="evenodd"/><rect style="paint-order:markers fill stroke" width="211.67" height="16" x="0" y="-110.6" fill="url(#a)" fill-rule="evenodd" transform="scale(1,-1)"/><g><g stroke="#fff" stroke-linecap="round"><g style="paint-order:stroke fill markers" stroke-width="2.3"><g style="paint-order:stroke fill markers" stroke="#fff" stroke-linecap="round" stroke-width="2.3"><g style="paint-order:stroke fill markers" fill="#f04b4b" stroke="#fff" stroke-linecap="round" stroke-width="2.3"><g style="paint-order:stroke fill markers" stroke="#fff" stroke-linecap="round" stroke-width="2.3"><path style="paint-order:stroke fill markers" fill="none" d="m123.68 48.356 7.961 4.5963v27.444l-23.767 13.722-15.857-9.1551" transform="matrix(.61725 0 0 .61725 .19417 -1.6619) matrix(.56497 0 0 .56497 5.1975 157.51) matrix(.4614 0 0 .4614 -18.074 -13.326) translate(-4.7302 9.9297) translate(-21.682 -4.325)"/><path style="paint-order:stroke fill markers" fill="#f04b4b" d="m107.87 94.119 0.0165-27.443" transform="matrix(.61725 0 0 .61725 .19417 -1.6619) matrix(.56497 0 0 .56497 5.1975 157.51) matrix(.4614 0 0 .4614 -18.074 -13.326) translate(-4.7302 9.9297) translate(-21.682 -4.325)"/><path style="paint-order:stroke fill markers" fill="#f04b4b" d="m107.89 66.676 23.751-13.724" transform="matrix(.61725 0 0 .61725 .19417 -1.6619) matrix(.56497 0 0 .56497 5.1975 157.51) matrix(.4614 0 0 .4614 -18.074 -13.326) translate(-4.7302 9.9297) translate(-21.682 -4.325)"/></g></g></g></g><g style="paint-order:markers fill stroke" fill="none" stroke-dasharray="4.836 4.836" stroke-dashoffset="13.299" stroke-linejoin="round" stroke-miterlimit="0" stroke-width="2.418"><g style="paint-order:markers fill stroke" fill="none" stroke="#fff" stroke-dasharray="4.836 4.836" stroke-dashoffset="13.299" stroke-linecap="round" stroke-linejoin="round" stroke-miterlimit="0" stroke-width="2.418"><g style="paint-order:markers fill stroke" fill="none" stroke="#fff" stroke-dasharray="4.836 4.836" stroke-dashoffset="13.299" stroke-linecap="round" stroke-linejoin="round" stroke-miterlimit="0" stroke-width="2.418"><g style="paint-order:markers fill stroke" fill="none" stroke="#fff" stroke-dasharray="4.836 4.836" stroke-dashoffset="13.299" stroke-linecap="round" stroke-linejoin="round" stroke-miterlimit="0" stroke-width="2.418"><g style="paint-order:markers fill stroke" fill="none" stroke="#fff" stroke-dasharray="4.836 4.836" stroke-dashoffset="13.299" stroke-linecap="round" stroke-linejoin="round" stroke-miterlimit="0" stroke-width="2.418"><path fill="none" stroke="#fff" stroke-dasharray="4.836 4.836" stroke-dashoffset="13.299" stroke-linecap="round" stroke-linejoin="round" stroke-miterlimit="0" stroke-width="2.418" d="m134.91 86.923-23.784-13.724m7.9159 32.014-7.9159-4.5703v-27.444l23.767-13.722 15.804 9.1243" transform="matrix(.61725 0 0 .61725 .19417 -1.6619) matrix(.56497 0 0 .56497 5.1975 157.51) matrix(.4614 0 0 .4614 -30.044 -19.974) translate(-11.036 6.2362) translate(2.3231 .20229) translate(-18.774 -6.6742)" style="paint-order:markers fill stroke"/></g></g></g></g></g></g><text style="line-height:1.25;shape-inside:url(#rect1675-6-3);white-space:pre" fill="#fff" font-family="sans-serif" font-size="10.583" transform="matrix(.61725 0 0 .61725 .19417 -1.6619) translate(-6.6414 158.14)" xml:space="preserve"><tspan x="33.344" y="14.081"><tspan>{{ config.title }}</tspan></tspan></text></g><g stroke="#000" stroke-linecap="round"><g style="paint-order:stroke fill markers" stroke-width="2.3"><g style="paint-order:stroke fill markers" stroke="#000" stroke-linecap="round" stroke-width="2.3"><g style="paint-order:stroke fill markers" fill="#f04b4b" stroke="#000" stroke-linecap="round" stroke-width="2.3"><g style="paint-order:stroke fill markers" stroke="#000" stroke-linecap="round" stroke-width="2.3"><path style="paint-order:stroke fill markers" fill="none" d="m123.68 48.356 7.961 4.5963v27.444l-23.767 13.722-15.857-9.1551" transform="matrix(1.7542 0 0 1.7542 72.621 3.4296) matrix(.48869 0 0 .48869 -20.861 -16.385) translate(-4.7302 9.9297) translate(-21.682 -4.325)"/><path style="paint-order:stroke fill markers" fill="#f04b4b" d="m107.87 94.119 0.0165-27.443" transform="matrix(1.7542 0 0 1.7542 72.621 3.4296) matrix(.48869 0 0 .48869 -20.861 -16.385) translate(-4.7302 9.9297) translate(-21.682 -4.325)"/><path style="paint-order:stroke fill markers" fill="#f04b4b" d="m107.89 66.676 23.751-13.724" transform="matrix(1.7542 0 0 1.7542 72.621 3.4296) matrix(.48869 0 0 .48869 -20.861 -16.385) translate(-4.7302 9.9297) translate(-21.682 -4.325)"/></g></g></g></g><g style="paint-order:markers fill stroke" fill="none" stroke-dasharray="4.836 4.836" stroke-dashoffset="13.299" stroke-linejoin="round" stroke-miterlimit="0" stroke-width="2.418"><g style="paint-order:markers fill stroke" fill="none" stroke="#000" stroke-dasharray="4.836 4.836" stroke-dashoffset="13.299" stroke-linecap="round" stroke-linejoin="round" stroke-miterlimit="0" stroke-width="2.418"><g style="paint-order:markers fill stroke" fill="none" stroke="#000" stroke-dasharray="4.836 4.836" stroke-dashoffset="13.299" stroke-linecap="round" stroke-linejoin="round" stroke-miterlimit="0" stroke-width="2.418"><g style="paint-order:markers fill stroke" fill="none" stroke="#000" stroke-dasharray="4.836 4.836" stroke-dashoffset="13.299" stroke-linecap="round" stroke-linejoin="round" stroke-miterlimit="0" stroke-width="2.418"><g style="paint-order:markers fill stroke" fill="none" stroke="#000" stroke-dasharray="4.836 4.836" stroke-dashoffset="13.299" stroke-linecap="round" stroke-linejoin="round" stroke-miterlimit="0" stroke-width="2.418"><path fill="none" stroke="#000" stroke-dasharray="4.836 4.836" stroke-dashoffset="13.299" stroke-linecap="round" stroke-linejoin="round" stroke-miterlimit="0" stroke-width="2.418" d="m134.91 86.923-23.784-13.724m7.9159 32.014-7.9159-4.5703v-27.444l23.767-13.722 15.804 9.1243" transform="matrix(1.7542 0 0 1.7542 72.621 3.4296) matrix(.48869 0 0 .48869 -33.54 -23.425) translate(-11.036 6.2362) translate(2.3231 .20229) translate(-18.774 -6.6742)" style="paint-order:markers fill stroke"/></g></g></g></g></g><g style="paint-order:stroke fill markers" fill-opacity=".999" stroke-linejoin="round"><path style="paint-order:stroke fill markers" fill="#080808" stroke-width="1.229" d="m222.16 95.246 5.193-2.1713-0.18456 2.6853 4.6169-6.2074-4.6327-0.55215 0.19748 2.28z" transform="matrix(1.7542 0 0 1.7542 72.621 3.4296) matrix(.48869 0 0 .48869 -89.317 -19.623)"/><path style="paint-order:stroke fill markers" fill="#080808" stroke-width="1.229" d="m244.25 82.398-5.193 3.8251 0.18455 2.4722-4.6169-0.87625 4.6327-5.9015-0.19747 2.5081z" transform="matrix(1.7542 0 0 1.7542 72.621 3.4296) matrix(.48869 0 0 .48869 -89.317 -19.623)"/><path style="paint-order:stroke fill markers" fill="#080000" stroke-width="1.706" d="m227.88 84.072 2.4935 1.2727" transform="matrix(1.7542 0 0 1.7542 72.621 3.4296) matrix(.48869 0 0 .48869 -89.317 -19.623)"/><path style="paint-order:stroke fill markers" fill="#080000" stroke-width="1.706" d="m233.25 83.342v-3.7088" transform="matrix(1.7542 0 0 1.7542 72.621 3.4296) matrix(.48869 0 0 .48869 -89.317 -19.623)"/><path style="paint-order:stroke fill markers" fill="#080000" stroke-width="1.706" d="m238.92 77.642-2.4935 4.152" transform="matrix(1.7542 0 0 1.7542 72.621 3.4296) matrix(.48869 0 0 .48869 -89.317 -19.623)"/></g></g><text style="line-height:1.25;shape-inside:url(#rect28445);white-space:pre" font-family="sans-serif" font-size="14.111" transform="translate(-7.297 75.479)" xml:space="preserve"><tspan x="35.619" y="4.239"><tspan font-family="Roboto" font-size="14.111" font-weight="bold">Conflicting Transactions</tspan></tspan></text></svg>